<?xml version="1.0" standalone="no"?>
<!DOCTYPE svg PUBLIC "-//W3C//DTD SVG 20010904//EN"
 "http://www.w3.org/TR/2001/REC-SVG-20010904/DTD/svg10.dtd">
<svg version="1.0" xmlns="http://www.w3.org/2000/svg"
 width="983.000000pt" height="983.000000pt" viewBox="0 0 983.000000 983.000000"
 preserveAspectRatio="xMidYMid meet">
<metadata>
Created by potrace 1.11, written by Peter Selinger 2001-2013
</metadata>
<g transform="translate(0.000000,983.000000) scale(0.100000,-0.100000)"
fill="#000000" stroke="none">
<path d="M4681 9770 c-895 -71 -1697 -440 -2326 -1074 -295 -296 -499 -576
-675 -927 -301 -598 -426 -1203 -391 -1879 27 -506 111 -835 327 -1280 239
-491 544 -963 1509 -2335 266 -379 896 -1282 1303 -1866 104 -149 191 -264
222 -292 176 -158 440 -152 611 13 37 35 146 183 302 410 232 338 455 657
1292 1850 869 1238 1175 1711 1398 2156 235 470 330 826 357 1341 35 676 -102
1326 -403 1907 -261 505 -660 965 -1128 1303 -424 306 -972 537 -1479 623
-295 50 -662 70 -919 50z m569 -2159 c138 -28 238 -63 385 -136 408 -202 706
-585 806 -1034 154 -699 -195 -1405 -845 -1711 -208 -98 -405 -142 -641 -143
-181 -1 -309 19 -481 74 -210 68 -385 170 -549 320 -254 231 -402 493 -477
841 -31 148 -31 448 0 591 77 349 256 649 515 866 244 203 483 305 832 355 73
11 363 -4 455 -23z"/>
</g>
</svg>
